<svg width="16" height="16" viewBox="0 0 16 16" fill="none" xmlns="http://www.w3.org/2000/svg">
<path d="M5.33325 7.33333V4.66667C5.33325 3.95942 5.6142 3.28115 6.1143 2.78105C6.6144 2.28095 7.29267 2 7.99992 2C8.70716 2 9.38544 2.28095 9.88554 2.78105C10.3856 3.28115 10.6666 3.95942 10.6666 4.66667V7.33333M3.33325 8.66667C3.33325 8.31304 3.47373 7.97391 3.72378 7.72386C3.97382 7.47381 4.31296 7.33333 4.66659 7.33333H11.3333C11.6869 7.33333 12.026 7.47381 12.2761 7.72386C12.5261 7.97391 12.6666 8.31304 12.6666 8.66667V12.6667C12.6666 13.0203 12.5261 13.3594 12.2761 13.6095C12.026 13.8595 11.6869 14 11.3333 14H4.66659C4.31296 14 3.97382 13.8595 3.72378 13.6095C3.47373 13.3594 3.33325 13.0203 3.33325 12.6667V8.66667ZM7.33325 10.6667C7.33325 10.8435 7.40349 11.013 7.52851 11.1381C7.65354 11.2631 7.82311 11.3333 7.99992 11.3333C8.17673 11.3333 8.3463 11.2631 8.47132 11.1381C8.59635 11.013 8.66659 10.8435 8.66659 10.6667C8.66659 10.4899 8.59635 10.3203 8.47132 10.1953C8.3463 10.0702 8.17673 10 7.99992 10C7.82311 10 7.65354 10.0702 7.52851 10.1953C7.40349 10.3203 7.33325 10.4899 7.33325 10.6667Z" stroke="#CD1F32" stroke-width="1.3" stroke-linecap="round" stroke-linejoin="round"/>
</svg>
